<svg id="visual" viewBox="0 0 900 360" width="900" height="360" xmlns="http://www.w3.org/2000/svg" xmlns:xlink="http://www.w3.org/1999/xlink" version="1.1"><rect x="0" y="0" width="900" height="360" fill="#000000"></rect><path d="M0 189L10.7 183.2C21.3 177.3 42.7 165.7 64.2 170C85.7 174.3 107.3 194.7 128.8 196.2C150.3 197.7 171.7 180.3 193 177.8C214.3 175.3 235.7 187.7 257 194.5C278.3 201.3 299.7 202.7 321.2 198.5C342.7 194.3 364.3 184.7 385.8 175C407.3 165.3 428.7 155.7 450 159.3C471.3 163 492.7 180 514.2 189.2C535.7 198.3 557.3 199.7 578.8 193C600.3 186.3 621.7 171.7 643 169.7C664.3 167.7 685.7 178.3 707 177.5C728.3 176.7 749.7 164.3 771.2 157.8C792.7 151.3 814.3 150.7 835.8 160.5C857.3 170.3 878.7 190.7 889.3 200.8L900 211L900 361L889.3 361C878.7 361 857.3 361 835.8 361C814.3 361 792.7 361 771.2 361C749.7 361 728.3 361 707 361C685.7 361 664.3 361 643 361C621.7 361 600.3 361 578.8 361C557.3 361 535.7 361 514.2 361C492.7 361 471.3 361 450 361C428.7 361 407.3 361 385.8 361C364.3 361 342.7 361 321.2 361C299.7 361 278.3 361 257 361C235.7 361 214.3 361 193 361C171.7 361 150.3 361 128.8 361C107.3 361 85.7 361 64.2 361C42.7 361 21.3 361 10.7 361L0 361Z" fill="#191919" stroke-linecap="round" stroke-linejoin="miter"></path></svg>