<svg id="visual" viewBox="0 0 900 360" width="900" height="360" xmlns="http://www.w3.org/2000/svg" xmlns:xlink="http://www.w3.org/1999/xlink" version="1.1"><rect x="0" y="0" width="900" height="360" fill="#000000"></rect><path d="M0 226L21.5 237.2C43 248.3 86 270.7 128.8 274.2C171.7 277.7 214.3 262.3 257.2 264.5C300 266.7 343 286.3 385.8 286.2C428.7 286 471.3 266 514.2 253C557 240 600 234 642.8 243.2C685.7 252.3 728.3 276.7 771.2 285.8C814 295 857 289 878.5 286L900 283L900 361L878.5 361C857 361 814 361 771.2 361C728.3 361 685.7 361 642.8 361C600 361 557 361 514.2 361C471.3 361 428.7 361 385.8 361C343 361 300 361 257.2 361C214.3 361 171.7 361 128.8 361C86 361 43 361 21.5 361L0 361Z" fill="#191919" stroke-linecap="round" stroke-linejoin="miter"></path></svg>